# This file uses centimeters as units for non-parametric coordinates.

mtllib picture_frame.mtl
g default
v -38.440051 8.223160 1.198903
v 39.434763 8.223160 1.198903
v -38.440051 104.502466 1.198903
v 39.434763 104.502466 1.198903
v -38.440051 104.502466 -1.198903
v 39.434763 104.502466 -1.198903
v -38.440051 8.223160 -1.198903
v 39.434763 8.223160 -1.198903
v -45.293518 112.975625 1.198903
v 46.288225 112.975625 1.198903
v 46.288225 112.975625 -1.198903
v -45.293518 112.975625 -1.198903
v -45.293518 -0.250016 -1.198903
v 46.288225 -0.250016 -1.198903
v 46.288225 -0.250016 1.198903
v -45.293518 -0.250016 1.198903
v -38.440051 104.502466 3.156581
v 39.434763 104.502466 3.156581
v 46.288225 112.975625 3.156581
v -45.293518 112.975625 3.156581
v -38.440051 8.223160 3.156581
v 39.434763 8.223160 3.156581
v -45.293518 -0.250016 3.156581
v 46.288225 -0.250016 3.156581
vt 0.375000 0.000000
vt 0.625000 0.000000
vt 0.375000 0.250000
vt 0.625000 0.250000
vt 0.375000 0.500000
vt 0.625000 0.500000
vt 0.375000 0.750000
vt 0.625000 0.750000
vt 0.375000 1.000000
vt 0.625000 1.000000
vt 0.875000 0.000000
vt 0.875000 0.250000
vt 0.125000 0.000000
vt 0.125000 0.250000
vt 0.375000 0.250000
vt 0.625000 0.250000
vt 0.625000 0.500000
vt 0.375000 0.500000
vt 0.375000 0.750000
vt 0.625000 0.750000
vt 0.625000 1.000000
vt 0.375000 1.000000
vt 0.875000 0.000000
vt 0.875000 0.250000
vt 0.625000 0.000000
vt 0.375000 0.000000
vt 0.125000 0.250000
vt 0.125000 0.000000
vt 0.375000 0.250000
vt 0.625000 0.250000
vt 0.625000 0.250000
vt 0.375000 0.250000
vt 0.625000 1.000000
vt 0.375000 1.000000
vt 0.375000 1.000000
vt 0.625000 1.000000
vt 0.625000 0.000000
vt 0.625000 0.000000
vt 0.375000 0.000000
vt 0.375000 0.000000
vn 0.000000 0.000000 1.000000
vn 0.000000 0.000000 1.000000
vn 0.000000 0.000000 1.000000
vn 0.000000 0.000000 1.000000
vn 0.000000 1.000000 0.000000
vn 0.000000 1.000000 0.000000
vn 0.000000 1.000000 0.000000
vn 0.000000 1.000000 0.000000
vn 0.000000 0.000000 -1.000000
vn 0.000000 0.000000 -1.000000
vn 0.000000 0.000000 -1.000000
vn 0.000000 0.000000 -1.000000
vn 0.000000 -1.000000 0.000000
vn 0.000000 -1.000000 0.000000
vn 0.000000 -1.000000 0.000000
vn 0.000000 -1.000000 0.000000
vn 1.000000 0.000000 0.000000
vn 1.000000 0.000000 0.000000
vn 1.000000 0.000000 0.000000
vn 1.000000 0.000000 0.000000
vn -1.000000 0.000000 0.000000
vn -1.000000 0.000000 0.000000
vn -1.000000 0.000000 0.000000
vn -1.000000 0.000000 0.000000
vn 0.000000 0.000000 1.000000
vn 0.000000 0.000000 1.000000
vn 0.000000 0.000000 1.000000
vn 0.000000 0.000000 1.000000
vn 0.000000 0.000000 -1.000000
vn 0.000000 0.000000 -1.000000
vn 0.000000 0.000000 -1.000000
vn 0.000000 0.000000 -1.000000
vn 0.000000 0.000000 -1.000000
vn 0.000000 0.000000 -1.000000
vn 0.000000 0.000000 -1.000000
vn 0.000000 0.000000 -1.000000
vn 0.000000 0.000000 1.000000
vn 0.000000 0.000000 1.000000
vn 0.000000 0.000000 1.000000
vn 0.000000 0.000000 1.000000
vn 0.000000 0.000000 -1.000000
vn 0.000000 0.000000 -1.000000
vn 0.000000 0.000000 -1.000000
vn 0.000000 0.000000 -1.000000
vn -0.000000 0.000000 1.000000
vn 0.000000 0.000000 1.000000
vn -0.000000 0.000000 1.000000
vn 0.000000 0.000000 1.000000
vn 0.000000 0.000000 1.000000
vn -0.000000 0.000000 1.000000
vn 0.000000 0.000000 1.000000
vn -0.000000 0.000000 1.000000
vn 0.000000 0.000000 -1.000000
vn -0.000000 0.000000 -1.000000
vn 0.000000 0.000000 -1.000000
vn -0.000000 0.000000 -1.000000
vn 0.000000 -1.000000 0.000000
vn 0.000000 -1.000000 0.000000
vn 0.000000 -1.000000 0.000000
vn 0.000000 -1.000000 0.000000
vn 0.000000 1.000000 0.000000
vn 0.000000 1.000000 0.000000
vn 0.000000 1.000000 0.000000
vn 0.000000 1.000000 0.000000
vn 0.000000 1.000000 0.000000
vn 0.000000 1.000000 0.000000
vn 0.000000 -1.000000 0.000000
vn 0.000000 -1.000000 0.000000
vn -1.000000 0.000000 0.000000
vn -1.000000 0.000000 0.000000
vn -1.000000 0.000000 0.000000
vn -1.000000 0.000000 0.000000
vn 1.000000 0.000000 0.000000
vn 1.000000 0.000000 0.000000
vn 1.000000 0.000000 0.000000
vn 1.000000 0.000000 0.000000
vn 1.000000 0.000000 0.000000
vn 1.000000 0.000000 0.000000
vn -1.000000 0.000000 0.000000
vn -1.000000 0.000000 0.000000
s 1
g pCube1
usemtl initialShadingGroup
f 1/1/1 2/2/2 3/3/3
f 3/3/3 2/2/2 4/4/4
s 2
f 9/15/5 10/16/6 12/18/7
f 12/18/7 10/16/6 11/17/8
s 3
f 5/5/9 6/6/10 7/7/11
f 7/7/11 6/6/10 8/8/12
s 4
f 13/19/13 14/20/14 16/22/15
f 16/22/15 14/20/14 15/21/16
s 5
f 15/25/17 14/23/18 10/16/19
f 10/16/19 14/23/18 11/24/20
s 6
f 13/28/21 16/26/22 12/27/23
f 12/27/23 16/26/22 9/15/24
s 7
f 17/29/25 18/30/26 20/32/27
f 20/32/27 18/30/26 19/31/28
s 8
f 6/6/29 5/5/30 11/17/31
f 11/17/31 5/5/30 12/18/32
s 9
f 7/7/33 8/8/34 13/19/35
f 13/19/35 8/8/34 14/20/36
s 10
f 22/33/37 21/34/38 24/36/39
f 24/36/39 21/34/38 23/35/40
s 11
f 8/11/41 6/12/42 14/23/43
f 14/23/43 6/12/42 11/24/44
s 12
f 18/30/45 22/37/46 19/31/47
f 19/31/47 22/37/46 24/38/48
s 13
f 21/39/49 17/29/50 23/40/51
f 23/40/51 17/29/50 20/32/52
s 14
f 5/14/53 7/13/54 12/27/55
f 12/27/55 7/13/54 13/28/56
s 15
f 3/3/57 4/4/58 17/29/59
f 17/29/59 4/4/58 18/30/60
s 2
f 10/16/6 9/15/5 19/31/61
f 19/31/61 9/15/5 20/32/62
s 16
f 2/10/63 1/9/64 22/33/65
f 22/33/65 1/9/64 21/34/66
s 4
f 16/22/15 15/21/16 23/35/67
f 23/35/67 15/21/16 24/36/68
s 17
f 4/4/69 2/2/70 18/30/71
f 18/30/71 2/2/70 22/37/72
s 5
f 15/25/17 10/16/19 24/38/73
f 24/38/73 10/16/19 19/31/74
s 18
f 1/1/75 3/3/76 21/39/77
f 21/39/77 3/3/76 17/29/78
s 6
f 9/15/24 16/26/22 20/32/79
f 20/32/79 16/26/22 23/40/80
